# xmcd
#
# Track frame offsets:
#        150
#        22330
#        39382
#        56217
#        69177
#        98900
#        121217
#        142875
#        158785
#        172437
#
# Disc length: 2657 seconds
#
# Revision: 1
# Processed by: cddbd v1.5PL3 Copyright (c) Steve Scherf et al.
# Submitted via: ExactAudioCopy v0.95a4
#
DISCID=8c0a5f0a
DTITLE=TONINHO HORTA - TONINHO HORTA
DYEAR=1980
DGENRE=Pop
TTITLE0=AQUI.OH!
TTITLE1=SAGUIN
TTITLE2=VOD DOS UBURUS
TTITLE3=CASO ANTIGO
TTITLE4=PRATO FEITO
TTITLE5=ERA SO COMECO NOSSO FIM
TTITLE6=MINHA CASA
TTITLE7=BONS AMIGOS
TTITLE8=VENTO
TTITLE9=MANOEL O AUDAZ
EXTD=
EXTT0=
EXTT1=
EXTT2=
EXTT3=
EXTT4=
EXTT5=
EXTT6=
EXTT7=
EXTT8=
EXTT9=
PLAYORDER=
